<mxfile host="app.diagrams.net" agent="Mozilla/5.0 (Windows NT 10.0; Win64; x64) AppleWebKit/537.36 (KHTML, like Gecko) Chrome/131.0.0.0 Safari/537.36" version="25.0.3">
  <diagram name="Page-1" id="50EO9YpB_tXBXK39-ciu">
    <mxGraphModel dx="1050" dy="557" grid="1" gridSize="10" guides="1" tooltips="1" connect="1" arrows="1" fold="1" page="1" pageScale="1" pageWidth="850" pageHeight="1100" math="0" shadow="0">
      <root>
        <mxCell id="0" />
        <mxCell id="1" parent="0" />
        <mxCell id="u3iRGMDKZ10SDEvuOUnA-6" style="edgeStyle=orthogonalEdgeStyle;rounded=0;orthogonalLoop=1;jettySize=auto;html=1;entryX=0;entryY=0.5;entryDx=0;entryDy=0;endArrow=none;endFill=0;" edge="1" parent="1" source="u3iRGMDKZ10SDEvuOUnA-1" target="u3iRGMDKZ10SDEvuOUnA-2">
          <mxGeometry relative="1" as="geometry" />
        </mxCell>
        <mxCell id="u3iRGMDKZ10SDEvuOUnA-1" value="&lt;font style=&quot;font-size: 22px;&quot;&gt;1&lt;/font&gt;" style="ellipse;whiteSpace=wrap;html=1;aspect=fixed;fillColor=#f8cecc;strokeColor=#b85450;" vertex="1" parent="1">
          <mxGeometry x="110" y="220" width="50" height="50" as="geometry" />
        </mxCell>
        <mxCell id="u3iRGMDKZ10SDEvuOUnA-7" style="edgeStyle=orthogonalEdgeStyle;rounded=0;orthogonalLoop=1;jettySize=auto;html=1;exitX=1;exitY=0.5;exitDx=0;exitDy=0;entryX=0;entryY=0.5;entryDx=0;entryDy=0;endArrow=none;endFill=0;" edge="1" parent="1" source="u3iRGMDKZ10SDEvuOUnA-2" target="u3iRGMDKZ10SDEvuOUnA-3">
          <mxGeometry relative="1" as="geometry" />
        </mxCell>
        <mxCell id="u3iRGMDKZ10SDEvuOUnA-2" value="&lt;font style=&quot;font-size: 22px;&quot;&gt;2&lt;/font&gt;" style="ellipse;whiteSpace=wrap;html=1;aspect=fixed;fillColor=#ffe6cc;strokeColor=#d79b00;" vertex="1" parent="1">
          <mxGeometry x="280" y="220" width="50" height="50" as="geometry" />
        </mxCell>
        <mxCell id="u3iRGMDKZ10SDEvuOUnA-8" style="edgeStyle=orthogonalEdgeStyle;rounded=0;orthogonalLoop=1;jettySize=auto;html=1;exitX=1;exitY=0.5;exitDx=0;exitDy=0;entryX=0;entryY=0.5;entryDx=0;entryDy=0;endArrow=none;endFill=0;" edge="1" parent="1" source="u3iRGMDKZ10SDEvuOUnA-3" target="u3iRGMDKZ10SDEvuOUnA-4">
          <mxGeometry relative="1" as="geometry" />
        </mxCell>
        <mxCell id="u3iRGMDKZ10SDEvuOUnA-3" value="&lt;font style=&quot;font-size: 22px;&quot;&gt;3&lt;/font&gt;" style="ellipse;whiteSpace=wrap;html=1;aspect=fixed;fillColor=#d5e8d4;strokeColor=#82b366;" vertex="1" parent="1">
          <mxGeometry x="460" y="220" width="50" height="50" as="geometry" />
        </mxCell>
        <mxCell id="u3iRGMDKZ10SDEvuOUnA-9" style="edgeStyle=orthogonalEdgeStyle;rounded=0;orthogonalLoop=1;jettySize=auto;html=1;exitX=1;exitY=0.5;exitDx=0;exitDy=0;entryX=0;entryY=0.5;entryDx=0;entryDy=0;endArrow=none;endFill=0;" edge="1" parent="1" source="u3iRGMDKZ10SDEvuOUnA-4" target="u3iRGMDKZ10SDEvuOUnA-5">
          <mxGeometry relative="1" as="geometry" />
        </mxCell>
        <mxCell id="u3iRGMDKZ10SDEvuOUnA-4" value="&lt;font style=&quot;font-size: 22px;&quot;&gt;4&lt;/font&gt;" style="ellipse;whiteSpace=wrap;html=1;aspect=fixed;fillColor=#dae8fc;strokeColor=#6c8ebf;" vertex="1" parent="1">
          <mxGeometry x="625" y="220" width="50" height="50" as="geometry" />
        </mxCell>
        <mxCell id="u3iRGMDKZ10SDEvuOUnA-5" value="&lt;font style=&quot;font-size: 22px;&quot;&gt;5&lt;/font&gt;" style="ellipse;whiteSpace=wrap;html=1;aspect=fixed;fillColor=#e1d5e7;strokeColor=#9673a6;" vertex="1" parent="1">
          <mxGeometry x="820" y="220" width="50" height="50" as="geometry" />
        </mxCell>
        <mxCell id="u3iRGMDKZ10SDEvuOUnA-11" value="Optimization of sequential&lt;div&gt;App on CPU&lt;/div&gt;" style="text;html=1;align=center;verticalAlign=middle;resizable=0;points=[];autosize=1;strokeColor=none;fillColor=none;" vertex="1" parent="1">
          <mxGeometry x="55" y="280" width="160" height="40" as="geometry" />
        </mxCell>
        <mxCell id="u3iRGMDKZ10SDEvuOUnA-12" value="Parallelization of Application&lt;div&gt;using OpenMP&lt;/div&gt;" style="text;html=1;align=center;verticalAlign=middle;resizable=0;points=[];autosize=1;strokeColor=none;fillColor=none;" vertex="1" parent="1">
          <mxGeometry x="220" y="280" width="170" height="40" as="geometry" />
        </mxCell>
        <mxCell id="u3iRGMDKZ10SDEvuOUnA-13" value="Offloading code to the&amp;nbsp;&lt;div&gt;GPU using CUDA&lt;/div&gt;" style="text;html=1;align=center;verticalAlign=middle;resizable=0;points=[];autosize=1;strokeColor=none;fillColor=none;" vertex="1" parent="1">
          <mxGeometry x="415" y="280" width="140" height="40" as="geometry" />
        </mxCell>
        <mxCell id="u3iRGMDKZ10SDEvuOUnA-14" value="Parallelization and Optimization&lt;div&gt;of GPU application&lt;/div&gt;" style="text;html=1;align=center;verticalAlign=middle;resizable=0;points=[];autosize=1;strokeColor=none;fillColor=none;" vertex="1" parent="1">
          <mxGeometry x="555" y="280" width="190" height="40" as="geometry" />
        </mxCell>
        <mxCell id="u3iRGMDKZ10SDEvuOUnA-15" value="Parallelization of&amp;nbsp;&lt;span style=&quot;background-color: initial;&quot;&gt;an N-body simulation&amp;nbsp;&lt;/span&gt;&lt;div&gt;application on GPU&lt;/div&gt;" style="text;html=1;align=center;verticalAlign=middle;resizable=0;points=[];autosize=1;strokeColor=none;fillColor=none;" vertex="1" parent="1">
          <mxGeometry x="740" y="280" width="230" height="40" as="geometry" />
        </mxCell>
      </root>
    </mxGraphModel>
  </diagram>
</mxfile>
